@startuml


class xr.Dataset {
    {static} open_zarr(store): xr.Dataset
}

interface xr.backends.AbstractDataStore extends Mapping {
}

class xr.backends.ZarrStore implements xr.backends.AbstractDataStore {
}





abstract class xcube.store.CubeStore implements Mapping {
}

class xcube_sh.store.SentinelHubStore extends xcube.store.CubeStore {
}

class xcube_sh.observers.RequestCollector {
}

xr.Dataset  o-->  "0..1 " xr.backends.ZarrStore
xcube_sh.store.SentinelHubStore  o-->  "0..1 " xcube_sh.observers.RequestCollector


@enduml